#N canvas 283 299 943 361 10;
#X declare -lib mrpeach;
#X obj 257 -53 import mrpeach;
#X obj 37 -4 udpsend;
#X msg 37 -60 connect 127.0.0.1 54321;
#X obj 37 -31 r packed_osc;
#N canvas 63 330 481 328 old 0;
#X obj 21 -11 udpreceive 1234;
#X obj 21 18 unpackOSC;
#X obj 21 54 routeOSC /mb/x;
#X obj 140 55 routeOSC /mb/y;
#X obj 173 32 print;
#X obj 239 54 routeOSC /mb2/x;
#X obj 357 55 routeOSC /mb2/y;
#X obj 18 125 routeOSC /mb3/x;
#X obj 137 125 routeOSC /mb3/y;
#X obj 240 125 routeOSC /mb4/x;
#X obj 17 183 routeOSC /mb5/x;
#X obj 242 183 routeOSC /mb6/x;
#X obj 361 183 routeOSC /mb6/y;
#X obj 136 184 routeOSC /mb5/y;
#X obj 359 126 routeOSC /mb4/y;
#X obj 17 89 s ax;
#X obj 137 91 s ay;
#X obj 240 88 s bx;
#X obj 360 90 s by;
#X obj 19 154 s cx;
#X obj 139 156 s cy;
#X obj 242 153 s dx;
#X obj 362 155 s dy;
#X obj 17 215 s ex;
#X obj 136 219 s ey;
#X obj 242 214 s fx;
#X obj 360 216 s fy;
#X connect 1 0 2 0;
#X connect 1 0 3 0;
#X connect 1 0 4 0;
#X connect 1 0 5 0;
#X connect 1 0 7 0;
#X connect 1 0 9 0;
#X connect 1 0 10 0;
#X connect 1 0 11 0;
#X connect 1 0 6 0;
#X connect 1 0 8 0;
#X connect 1 0 14 0;
#X connect 1 0 13 0;
#X connect 1 0 12 0;
#X connect 2 0 15 0;
#X connect 3 0 16 0;
#X connect 5 0 17 0;
#X connect 6 0 18 0;
#X connect 7 0 19 0;
#X connect 8 0 20 0;
#X connect 9 0 21 0;
#X connect 10 0 23 0;
#X connect 11 0 25 0;
#X connect 12 0 26 0;
#X connect 13 0 24 0;
#X connect 14 0 22 0;
#X restore 333 -27 pd old;
#N canvas 15 137 1258 594 mappin 0;
#X obj 18 35 ctlin 0;
#X obj 18 89 linearscale -2 2;
#X obj 18 63 / 127;
#X obj 18 164 packOSC;
#X msg 18 134 /visualODEs/a/x \$1;
#X obj 18 191 s packed_osc;
#X obj 251 88 linearscale -2 2;
#X obj 251 62 / 127;
#X obj 251 163 packOSC;
#X obj 251 190 s packed_osc;
#X obj 251 34 ctlin 1;
#X msg 251 133 /visualODEs/a/y \$1;
#X obj 487 87 linearscale -2 2;
#X obj 487 61 / 127;
#X obj 487 162 packOSC;
#X obj 487 189 s packed_osc;
#X msg 487 132 /visualODEs/b/x \$1;
#X obj 487 32 ctlin 2;
#X obj 726 89 linearscale -2 2;
#X obj 726 62 / 127;
#X obj 726 164 packOSC;
#X obj 726 191 s packed_osc;
#X obj 726 33 ctlin 3;
#X msg 726 134 /visualODEs/b/y \$1;
#X obj 75 36 ctlin 32;
#X msg 75 61 0;
#X msg 309 59 0;
#X obj 309 34 ctlin 33;
#X msg 543 57 0;
#X obj 543 32 ctlin 34;
#X msg 783 58 0;
#X obj 783 33 ctlin 35;
#X obj 18 286 linearscale -2 2;
#X obj 18 260 / 127;
#X obj 18 361 packOSC;
#X obj 18 388 s packed_osc;
#X obj 251 288 linearscale -2 2;
#X obj 251 261 / 127;
#X obj 251 363 packOSC;
#X obj 251 390 s packed_osc;
#X msg 74 256 0;
#X msg 308 257 0;
#X obj 980 87 linearscale -2 2;
#X obj 980 61 / 127;
#X obj 980 162 packOSC;
#X obj 980 189 s packed_osc;
#X obj 1219 89 linearscale -2 2;
#X obj 1219 62 / 127;
#X obj 1219 164 packOSC;
#X obj 1219 191 s packed_osc;
#X msg 1036 57 0;
#X msg 1276 58 0;
#X obj 980 32 ctlin 4;
#X obj 1219 33 ctlin 5;
#X obj 1036 32 ctlin 36;
#X obj 1276 33 ctlin 37;
#X msg 980 131 /visualODEs/c/x \$1;
#X msg 1219 134 /visualODEs/c/y \$1;
#X obj 18 231 ctlin 6;
#X obj 251 232 ctlin 7;
#X obj 74 231 ctlin 38;
#X obj 308 232 ctlin 39;
#X msg 18 330 /visualODEs/d/x \$1;
#X msg 251 333 /visualODEs/d/y \$1;
#X obj 485 286 linearscale -2 2;
#X obj 485 260 / 127;
#X obj 485 361 packOSC;
#X obj 485 388 s packed_osc;
#X obj 718 288 linearscale -2 2;
#X obj 718 261 / 127;
#X obj 718 363 packOSC;
#X obj 718 390 s packed_osc;
#X msg 541 256 0;
#X msg 775 257 0;
#X msg 486 329 /visualODEs/e/x \$1;
#X msg 718 333 /visualODEs/e/y \$1;
#X obj 485 231 ctlin 16;
#X obj 718 231 ctlin 17;
#X obj 541 231 ctlin 64;
#X obj 775 232 ctlin 65;
#X obj 982 278 linearscale -2 2;
#X obj 982 252 / 127;
#X obj 982 353 packOSC;
#X obj 982 380 s packed_osc;
#X obj 1215 280 linearscale -2 2;
#X obj 1215 253 / 127;
#X obj 1215 355 packOSC;
#X obj 1215 382 s packed_osc;
#X msg 1038 248 0;
#X msg 1272 249 0;
#X msg 983 321 /visualODEs/f/x \$1;
#X msg 1215 325 /visualODEs/f/y \$1;
#X obj 982 223 ctlin 18;
#X obj 1215 223 ctlin 19;
#X obj 1038 222 ctlin 66;
#X obj 1272 224 ctlin 67;
#X obj 15 459 / 127;
#X obj 15 625 packOSC;
#X obj 15 652 s packed_osc;
#X obj 248 460 / 127;
#X obj 248 562 packOSC;
#X obj 248 589 s packed_osc;
#X obj 15 430 ctlin 22;
#X obj 248 430 ctlin 23;
#X obj 71 429 ctlin 70;
#X obj 305 431 ctlin 71;
#X msg 305 456 10;
#X msg 71 455 0.01;
#X obj 248 487 linearscale 0.01 50;
#X msg 15 593 /visualODEs/dt \$1;
#X msg 248 532 /visualODEs/rad \$1;
#X obj 145 136 r ax;
#X obj 375 133 r ay;
#X obj 609 133 r bx;
#X obj 851 133 r by;
#X obj 1106 128 r cx;
#X obj 1359 133 r cy;
#X obj 147 328 r dx;
#X obj 390 329 r dy;
#X obj 617 328 r ex;
#X obj 844 332 r ey;
#X obj 1109 318 r fx;
#X obj 1350 324 r fy;
#X obj 133 456 r dt;
#X obj 370 456 r rad;
#X obj 501 457 / 127;
#X obj 501 559 packOSC;
#X obj 501 586 s packed_osc;
#X obj 732 445 / 127;
#X obj 732 547 packOSC;
#X obj 732 574 s packed_osc;
#X msg 501 529 /visualODEs/maxVel \$1;
#X msg 732 517 /visualODEs/sponRate \$1;
#X obj 558 428 ctlin 68;
#X obj 789 415 ctlin 69;
#X msg 558 453 0.2;
#X msg 789 441 0.9;
#X obj 732 471 linearscale 0 1;
#X obj 611 567 print;
#X obj 503 426 ctlin 21;
#X obj 732 415 ctlin 20;
#X obj 501 483 linearscale 0.01 3;
#X obj 15 485 logscale 0 1;
#X obj 154 533 nbx 5 14 -1e+37 1e+37 0 0 empty empty empty 0 -8 0 10
-262144 -1 -1 0.444791 256;
#X obj 15 553 line;
#X msg 15 525 \$1 100;
#X connect 0 0 2 0;
#X connect 1 0 4 0;
#X connect 2 0 1 0;
#X connect 3 0 5 0;
#X connect 4 0 3 0;
#X connect 6 0 11 0;
#X connect 7 0 6 0;
#X connect 8 0 9 0;
#X connect 10 0 7 0;
#X connect 11 0 8 0;
#X connect 12 0 16 0;
#X connect 13 0 12 0;
#X connect 14 0 15 0;
#X connect 16 0 14 0;
#X connect 17 0 13 0;
#X connect 18 0 23 0;
#X connect 19 0 18 0;
#X connect 20 0 21 0;
#X connect 22 0 19 0;
#X connect 23 0 20 0;
#X connect 24 0 25 0;
#X connect 25 0 4 0;
#X connect 26 0 11 0;
#X connect 27 0 26 0;
#X connect 28 0 16 0;
#X connect 29 0 28 0;
#X connect 30 0 23 0;
#X connect 31 0 30 0;
#X connect 32 0 62 0;
#X connect 33 0 32 0;
#X connect 34 0 35 0;
#X connect 36 0 63 0;
#X connect 37 0 36 0;
#X connect 38 0 39 0;
#X connect 40 0 62 0;
#X connect 41 0 63 0;
#X connect 42 0 56 0;
#X connect 43 0 42 0;
#X connect 44 0 45 0;
#X connect 46 0 57 0;
#X connect 47 0 46 0;
#X connect 48 0 49 0;
#X connect 50 0 56 0;
#X connect 51 0 57 0;
#X connect 52 0 43 0;
#X connect 53 0 47 0;
#X connect 54 0 50 0;
#X connect 55 0 51 0;
#X connect 56 0 44 0;
#X connect 57 0 48 0;
#X connect 58 0 33 0;
#X connect 59 0 37 0;
#X connect 60 0 40 0;
#X connect 61 0 41 0;
#X connect 62 0 34 0;
#X connect 63 0 38 0;
#X connect 64 0 74 0;
#X connect 65 0 64 0;
#X connect 66 0 67 0;
#X connect 68 0 75 0;
#X connect 69 0 68 0;
#X connect 70 0 71 0;
#X connect 72 0 74 0;
#X connect 73 0 75 0;
#X connect 74 0 66 0;
#X connect 75 0 70 0;
#X connect 76 0 65 0;
#X connect 77 0 69 0;
#X connect 78 0 72 0;
#X connect 79 0 73 0;
#X connect 80 0 90 0;
#X connect 81 0 80 0;
#X connect 82 0 83 0;
#X connect 84 0 91 0;
#X connect 85 0 84 0;
#X connect 86 0 87 0;
#X connect 88 0 90 0;
#X connect 89 0 91 0;
#X connect 90 0 82 0;
#X connect 91 0 86 0;
#X connect 92 0 81 0;
#X connect 93 0 85 0;
#X connect 94 0 88 0;
#X connect 95 0 89 0;
#X connect 96 0 142 0;
#X connect 97 0 98 0;
#X connect 99 0 108 0;
#X connect 100 0 101 0;
#X connect 102 0 96 0;
#X connect 103 0 99 0;
#X connect 104 0 107 0;
#X connect 105 0 106 0;
#X connect 106 0 110 0;
#X connect 108 0 110 0;
#X connect 109 0 97 0;
#X connect 110 0 100 0;
#X connect 111 0 1 0;
#X connect 112 0 6 0;
#X connect 113 0 12 0;
#X connect 114 0 18 0;
#X connect 115 0 42 0;
#X connect 116 0 46 0;
#X connect 117 0 32 0;
#X connect 118 0 36 0;
#X connect 119 0 64 0;
#X connect 120 0 68 0;
#X connect 121 0 80 0;
#X connect 122 0 84 0;
#X connect 123 0 142 0;
#X connect 124 0 108 0;
#X connect 125 0 141 0;
#X connect 126 0 127 0;
#X connect 128 0 137 0;
#X connect 129 0 130 0;
#X connect 131 0 126 0;
#X connect 131 0 138 0;
#X connect 132 0 129 0;
#X connect 133 0 135 0;
#X connect 134 0 136 0;
#X connect 135 0 131 0;
#X connect 136 0 132 0;
#X connect 137 0 132 0;
#X connect 139 0 125 0;
#X connect 140 0 128 0;
#X connect 141 0 131 0;
#X connect 142 0 143 0;
#X connect 142 0 145 0;
#X connect 144 0 109 0;
#X connect 145 0 144 0;
#X restore 257 -27 pd mappin;
#X obj 37 -87 bng 15 250 50 0 empty empty empty 17 7 0 10 -262144 -1
-1;
#X obj 595 89 vsl 35 100 0 1 0 0 dt empty DT 0 -9 0 10 -261234 -1 -1
0 1;
#X obj 638 89 vsl 35 100 0 1 0 0 rad empty RADIO 0 -9 0 10 -261682
-1 -1 0 1;
#X obj 39 89 vsl 35 100 0 1 0 0 ax empty a.x 0 -9 0 10 -204800 -1 -1
6600 1;
#X obj 82 89 vsl 35 100 0 1 0 0 ay empty a.y 0 -9 0 10 -203904 -1 -1
0 1;
#X obj 129 89 vsl 35 100 0 1 0 0 bx empty b.x 0 -9 0 10 -204800 -1
-1 0 1;
#X obj 172 89 vsl 35 100 0 1 0 0 by empty b.y 0 -9 0 10 -203904 -1
-1 0 1;
#X obj 219 89 vsl 35 100 0 1 0 0 cx empty c.x 0 -9 0 10 -204800 -1
-1 0 1;
#X obj 262 89 vsl 35 100 0 1 0 0 cy empty c.y 0 -9 0 10 -203904 -1
-1 0 1;
#X obj 309 89 vsl 35 100 0 1 0 0 dx empty d.x 0 -9 0 10 -204800 -1
-1 0 1;
#X obj 352 89 vsl 35 100 0 1 0 0 dy empty d.y 0 -9 0 10 -203904 -1
-1 0 1;
#X obj 399 89 vsl 35 100 0 1 0 0 ex empty e.x 0 -9 0 10 -204800 -1
-1 0 1;
#X obj 442 89 vsl 35 100 0 1 0 0 ey empty e.y 0 -9 0 10 -203904 -1
-1 0 1;
#X obj 489 89 vsl 35 100 0 1 0 0 fx empty f.x 0 -9 0 10 -204800 -1
-1 0 1;
#X obj 532 89 vsl 35 100 0 1 0 0 fy empty f.y 0 -9 0 10 -203904 -1
-1 0 1;
#N canvas 531 279 450 300 zero 0;
#X obj 100 100 bng 35 250 50 0 empty empty empty 17 7 0 10 -191407
-1 -1;
#X obj 100 165 outlet;
#X msg 100 141 0.5;
#X connect 0 0 2 0;
#X connect 2 0 1 0;
#X coords 0 -1 1 1 35 35 2 100 100;
#X restore 39 36 pd zero;
#N canvas 531 279 450 300 zero 0;
#X obj 100 100 bng 35 250 50 0 empty empty empty 17 7 0 10 -191407
-1 -1;
#X obj 100 165 outlet;
#X msg 100 141 0.5;
#X connect 0 0 2 0;
#X connect 2 0 1 0;
#X coords 0 -1 1 1 35 35 2 100 100;
#X restore 82 36 pd zero;
#N canvas 531 279 450 300 zero 0;
#X obj 100 100 bng 35 250 50 0 empty empty empty 17 7 0 10 -191407
-1 -1;
#X obj 100 165 outlet;
#X msg 100 141 0.5;
#X connect 0 0 2 0;
#X connect 2 0 1 0;
#X coords 0 -1 1 1 35 35 2 100 100;
#X restore 129 36 pd zero;
#N canvas 531 279 450 300 zero 0;
#X obj 100 100 bng 35 250 50 0 empty empty empty 17 7 0 10 -191407
-1 -1;
#X obj 100 165 outlet;
#X msg 100 141 0.5;
#X connect 0 0 2 0;
#X connect 2 0 1 0;
#X coords 0 -1 1 1 35 35 2 100 100;
#X restore 172 36 pd zero;
#N canvas 531 279 450 300 zero 0;
#X obj 100 100 bng 35 250 50 0 empty empty empty 17 7 0 10 -191407
-1 -1;
#X obj 100 165 outlet;
#X msg 100 141 0.5;
#X connect 0 0 2 0;
#X connect 2 0 1 0;
#X coords 0 -1 1 1 35 35 2 100 100;
#X restore 219 36 pd zero;
#N canvas 531 279 450 300 zero 0;
#X obj 100 100 bng 35 250 50 0 empty empty empty 17 7 0 10 -191407
-1 -1;
#X obj 100 165 outlet;
#X msg 100 141 0.5;
#X connect 0 0 2 0;
#X connect 2 0 1 0;
#X coords 0 -1 1 1 35 35 2 100 100;
#X restore 262 36 pd zero;
#N canvas 531 279 450 300 zero 0;
#X obj 100 100 bng 35 250 50 0 empty empty empty 17 7 0 10 -191407
-1 -1;
#X obj 100 165 outlet;
#X msg 100 141 0.5;
#X connect 0 0 2 0;
#X connect 2 0 1 0;
#X coords 0 -1 1 1 35 35 2 100 100;
#X restore 309 36 pd zero;
#N canvas 531 279 450 300 zero 0;
#X obj 100 100 bng 35 250 50 0 empty empty empty 17 7 0 10 -191407
-1 -1;
#X obj 100 165 outlet;
#X msg 100 141 0.5;
#X connect 0 0 2 0;
#X connect 2 0 1 0;
#X coords 0 -1 1 1 35 35 2 100 100;
#X restore 352 36 pd zero;
#N canvas 531 279 450 300 zero 0;
#X obj 100 100 bng 35 250 50 0 empty empty empty 17 7 0 10 -191407
-1 -1;
#X obj 100 165 outlet;
#X msg 100 141 0.5;
#X connect 0 0 2 0;
#X connect 2 0 1 0;
#X coords 0 -1 1 1 35 35 2 100 100;
#X restore 399 36 pd zero;
#N canvas 531 279 450 300 zero 0;
#X obj 100 100 bng 35 250 50 0 empty empty empty 17 7 0 10 -191407
-1 -1;
#X obj 100 165 outlet;
#X msg 100 141 0.5;
#X connect 0 0 2 0;
#X connect 2 0 1 0;
#X coords 0 -1 1 1 35 35 2 100 100;
#X restore 442 36 pd zero;
#N canvas 531 279 450 300 zero 0;
#X obj 100 100 bng 35 250 50 0 empty empty empty 17 7 0 10 -191407
-1 -1;
#X obj 100 165 outlet;
#X msg 100 141 0.5;
#X connect 0 0 2 0;
#X connect 2 0 1 0;
#X coords 0 -1 1 1 35 35 2 100 100;
#X restore 489 36 pd zero;
#N canvas 531 279 450 300 zero 0;
#X obj 100 100 bng 35 250 50 0 empty empty empty 17 7 0 10 -191407
-1 -1;
#X obj 100 165 outlet;
#X msg 100 141 0.5;
#X connect 0 0 2 0;
#X connect 2 0 1 0;
#X coords 0 -1 1 1 35 35 2 100 100;
#X restore 532 36 pd zero;
#X obj 682 89 vsl 35 100 0 1 0 0 maxVel empty maxVel 0 -9 0 10 -261234
-1 -1 0 1;
#X obj 725 89 vsl 35 100 0 1 0 0 rad empty RADIO 0 -9 0 10 -261682
-1 -1 0 1;
#X connect 2 0 1 0;
#X connect 3 0 1 0;
#X connect 6 0 2 0;
#X connect 21 0 9 0;
#X connect 22 0 10 0;
#X connect 23 0 11 0;
#X connect 24 0 12 0;
#X connect 25 0 13 0;
#X connect 26 0 14 0;
#X connect 27 0 15 0;
#X connect 28 0 16 0;
#X connect 29 0 17 0;
#X connect 30 0 18 0;
#X connect 31 0 19 0;
#X connect 32 0 20 0;
