#N canvas 1 109 1483 575 10;
#X declare -lib mrpeach;
#X obj 18 35 ctlin 0;
#X obj 18 89 linearscale -2 2;
#X obj 18 63 / 127;
#X obj 19 -10 import mrpeach;
#X obj 20 448 udpsend;
#X msg 72 448 connect 127.0.0.1 54321;
#X obj 18 164 packOSC;
#X msg 18 134 /visualODEs/a/x \$1;
#X obj 18 191 s packed_osc;
#X obj 20 421 r packed_osc;
#X obj 251 88 linearscale -2 2;
#X obj 251 62 / 127;
#X obj 251 163 packOSC;
#X obj 251 190 s packed_osc;
#X obj 251 34 ctlin 1;
#X msg 251 133 /visualODEs/a/y \$1;
#X obj 487 87 linearscale -2 2;
#X obj 487 61 / 127;
#X obj 487 162 packOSC;
#X obj 487 189 s packed_osc;
#X msg 487 132 /visualODEs/b/x \$1;
#X obj 487 32 ctlin 2;
#X obj 726 89 linearscale -2 2;
#X obj 726 62 / 127;
#X obj 726 164 packOSC;
#X obj 726 191 s packed_osc;
#X obj 726 33 ctlin 3;
#X msg 726 134 /visualODEs/b/y \$1;
#X obj 75 36 ctlin 32;
#X msg 75 61 0;
#X msg 309 59 0;
#X obj 309 34 ctlin 33;
#X msg 543 57 0;
#X obj 543 32 ctlin 34;
#X msg 783 58 0;
#X obj 783 33 ctlin 35;
#X obj 18 286 linearscale -2 2;
#X obj 18 260 / 127;
#X obj 18 361 packOSC;
#X obj 18 388 s packed_osc;
#X obj 251 288 linearscale -2 2;
#X obj 251 261 / 127;
#X obj 251 363 packOSC;
#X obj 251 390 s packed_osc;
#X msg 74 256 0;
#X msg 308 257 0;
#X obj 980 87 linearscale -2 2;
#X obj 980 61 / 127;
#X obj 980 162 packOSC;
#X obj 980 189 s packed_osc;
#X obj 1219 89 linearscale -2 2;
#X obj 1219 62 / 127;
#X obj 1219 164 packOSC;
#X obj 1219 191 s packed_osc;
#X msg 1036 57 0;
#X msg 1276 58 0;
#X obj 980 32 ctlin 4;
#X obj 1219 33 ctlin 5;
#X obj 1036 32 ctlin 36;
#X obj 1276 33 ctlin 37;
#X msg 980 131 /visualODEs/c/x \$1;
#X msg 1219 134 /visualODEs/c/y \$1;
#X obj 18 231 ctlin 6;
#X obj 251 232 ctlin 7;
#X obj 74 231 ctlin 38;
#X obj 308 232 ctlin 39;
#X msg 18 330 /visualODEs/d/x \$1;
#X msg 251 333 /visualODEs/d/y \$1;
#X obj 485 286 linearscale -2 2;
#X obj 485 260 / 127;
#X obj 485 361 packOSC;
#X obj 485 388 s packed_osc;
#X obj 718 288 linearscale -2 2;
#X obj 718 261 / 127;
#X obj 718 363 packOSC;
#X obj 718 390 s packed_osc;
#X msg 541 256 0;
#X msg 775 257 0;
#X obj 485 231 ctlin 8;
#X obj 718 232 ctlin 9;
#X msg 485 329 /visualODEs/e/x \$1;
#X msg 718 333 /visualODEs/e/y \$1;
#X obj 541 231 ctlin 40;
#X obj 775 232 ctlin 41;
#X connect 0 0 2 0;
#X connect 1 0 7 0;
#X connect 2 0 1 0;
#X connect 5 0 4 0;
#X connect 6 0 8 0;
#X connect 7 0 6 0;
#X connect 9 0 4 0;
#X connect 10 0 15 0;
#X connect 11 0 10 0;
#X connect 12 0 13 0;
#X connect 14 0 11 0;
#X connect 15 0 12 0;
#X connect 16 0 20 0;
#X connect 17 0 16 0;
#X connect 18 0 19 0;
#X connect 20 0 18 0;
#X connect 21 0 17 0;
#X connect 22 0 27 0;
#X connect 23 0 22 0;
#X connect 24 0 25 0;
#X connect 26 0 23 0;
#X connect 27 0 24 0;
#X connect 28 0 29 0;
#X connect 29 0 7 0;
#X connect 30 0 15 0;
#X connect 31 0 30 0;
#X connect 32 0 20 0;
#X connect 33 0 32 0;
#X connect 34 0 27 0;
#X connect 35 0 34 0;
#X connect 36 0 66 0;
#X connect 37 0 36 0;
#X connect 38 0 39 0;
#X connect 40 0 67 0;
#X connect 41 0 40 0;
#X connect 42 0 43 0;
#X connect 44 0 66 0;
#X connect 45 0 67 0;
#X connect 46 0 60 0;
#X connect 47 0 46 0;
#X connect 48 0 49 0;
#X connect 50 0 61 0;
#X connect 51 0 50 0;
#X connect 52 0 53 0;
#X connect 54 0 60 0;
#X connect 55 0 61 0;
#X connect 56 0 47 0;
#X connect 57 0 51 0;
#X connect 58 0 54 0;
#X connect 59 0 55 0;
#X connect 60 0 48 0;
#X connect 61 0 52 0;
#X connect 62 0 37 0;
#X connect 63 0 41 0;
#X connect 64 0 44 0;
#X connect 65 0 45 0;
#X connect 66 0 38 0;
#X connect 67 0 42 0;
#X connect 68 0 80 0;
#X connect 69 0 68 0;
#X connect 70 0 71 0;
#X connect 72 0 81 0;
#X connect 73 0 72 0;
#X connect 74 0 75 0;
#X connect 76 0 80 0;
#X connect 77 0 81 0;
#X connect 78 0 69 0;
#X connect 79 0 73 0;
#X connect 80 0 70 0;
#X connect 81 0 74 0;
#X connect 82 0 76 0;
#X connect 83 0 77 0;
